<svg xmlns="http://www.w3.org/2000/svg" xmlns:xlink="http://www.w3.org/1999/xlink" version="1.1" x="0px" y="0px" viewBox="0 0 100 100" enable-background="new 0 0 100 100" xml:space="preserve"><path fill="#000000" d="M80.332,7.481h-29.47c-4.52,0-8.196,3.483-8.592,7.893h-1.808c-4.482,0-8.138,3.434-8.58,7.798h-1.817  c-4.482,0-8.139,3.434-8.58,7.802h-1.816c-4.783,0-8.67,3.889-8.67,8.67v44.21c0,4.777,3.888,8.667,8.67,8.667h29.472  c4.484,0,8.139-3.432,8.582-7.8h1.816c4.482,0,8.14-3.435,8.579-7.798h1.818c4.518,0,8.195-3.49,8.589-7.898h1.809  c4.782,0,8.668-3.89,8.668-8.667V16.146C88.999,11.369,85.113,7.481,80.332,7.481z M55.208,83.854c0,3.346-2.726,6.066-6.07,6.066  h-29.47c-3.348,0-6.072-2.721-6.072-6.066v-44.21c0-3.347,2.724-6.074,6.072-6.074H49.14c3.347,0,6.07,2.727,6.07,6.074v44.21  H55.208z M65.605,76.056c0,3.346-2.725,6.066-6.07,6.066h-1.728V39.644c0-4.781-3.887-8.67-8.67-8.67H24.083  c0.426-2.929,2.933-5.201,5.98-5.201h29.472c3.346,0,6.07,2.728,6.07,6.074V76.056z M76.004,68.258c0,3.346-2.725,6.066-6.072,6.066  h-1.727V31.845c0-4.784-3.886-8.673-8.67-8.673H34.482c0.426-2.929,2.931-5.198,5.98-5.198h29.474c3.346,0,6.07,2.729,6.07,6.074  v44.21H76.004z M86.401,60.358c0,3.346-2.724,6.067-6.069,6.067h-1.729V24.047c0-4.783-3.887-8.672-8.67-8.672H44.869  c0.383-2.975,2.91-5.296,5.994-5.296h29.472c3.346,0,6.071,2.721,6.071,6.067v44.212H86.401z"></path></svg>