<svg xmlns="http://www.w3.org/2000/svg" xmlns:xlink="http://www.w3.org/1999/xlink" version="1.1" x="0px" y="0px" viewBox="0 0 30 30" xml:space="preserve"><g transform="translate(-570 -440)"><g xmlns="http://www.w3.org/2000/svg" xmlns:xlink="http://www.w3.org/1999/xlink"><polygon points="594.303,451.111 592.889,449.697 589,453.586 585.111,449.697 583.697,451.111 587.586,455 583.697,458.889     585.111,460.303 589,456.414 592.889,460.303 594.303,458.889 590.414,455   "></polygon><g><path d="M596,445h-15l-11,10l11,10h15c2.209,0,4-1.791,4-4v-12C600,446.791,598.209,445,596,445z M598,461c0,1.103-0.897,2-2,2     h-14.227l-8.801-8l8.801-8H596c1.103,0,2,0.897,2,2V461z"></path></g></g></g></svg>